<svg width="16.000000" height="26.000000" viewBox="0 0 16 26" fill="none" xmlns="http://www.w3.org/2000/svg" xmlns:xlink="http://www.w3.org/1999/xlink">
	<desc>
			Created with Pixso.
	</desc>
	<defs>
		<clipPath id="clip12_4561">
			<rect id="iconoir:birthday-cake" width="16.000000" height="16.000000" transform="translate(0.000000 5.000000)" fill="white" fill-opacity="0"/>
		</clipPath>
	</defs>
	<rect id="iconoir:birthday-cake" width="16.000000" height="16.000000" transform="translate(0.000000 5.000000)" fill="#FFFFFF" fill-opacity="0"/>
	<g clip-path="url(#clip12_4561)">
		<path id="Vector" d="M2.66675 16L2.66675 18.3333C2.66675 18.6868 2.80713 19.0261 3.05713 19.2761C3.30713 19.5261 3.64648 19.6665 4 19.6665L12 19.6665C12.3535 19.6665 12.6929 19.5261 12.9429 19.2761C13.1929 19.0261 13.3333 18.6868 13.3333 18.3333L13.3333 16M2 14.3333L2 13.6665C2 13.313 2.14038 12.9739 2.39062 12.7239C2.64062 12.4736 2.97974 12.3333 3.33325 12.3333L12.6667 12.3333C13.0203 12.3333 13.3594 12.4736 13.6094 12.7239C13.8596 12.9739 14 13.313 14 13.6665L14 14.3333M8 10.3333L8 12.3333M9.33325 8.58325C9.33325 7.47852 8 6.33325 8 6.33325C8 6.33325 6.66675 7.47852 6.66675 8.58325C6.66675 9.68799 7.15869 10.3333 8 10.3333C8.84131 10.3333 9.33325 9.68799 9.33325 8.58325Z" stroke="#777777" stroke-opacity="1.000000" stroke-width="1.000000" stroke-linejoin="round"/>
		<path id="Vector" d="M14 14.3333C14 14.8638 13.7893 15.3723 13.4143 15.7476C13.0391 16.1226 12.5305 16.3333 12 16.3333C11.4695 16.3333 10.9609 16.1226 10.5857 15.7476C10.2107 15.3723 10 14.8638 10 14.3333C10 14.8638 9.78931 15.3723 9.41431 15.7476C9.03906 16.1226 8.53052 16.3333 8 16.3333C7.46948 16.3333 6.96094 16.1226 6.58569 15.7476C6.21069 15.3723 6 14.8638 6 14.3333C6 14.8638 5.78931 15.3723 5.41431 15.7476C5.03906 16.1226 4.53052 16.3333 4 16.3333C3.46948 16.3333 2.96094 16.1226 2.58569 15.7476C2.21069 15.3723 2 14.8638 2 14.3333" stroke="#777777" stroke-opacity="1.000000" stroke-width="1.000000" stroke-linejoin="round" stroke-linecap="round"/>
	</g>
</svg>
